<svg width="71" height="608" viewBox="0 0 71 608" fill="none" xmlns="http://www.w3.org/2000/svg">
<g filter="url(#filter0_d_330_7)">
<path d="M38.6185 23.4246C41.1275 11.9745 51.2782 4 63 4C63 4 19.5 185.618 19.5 304C19.5 422.382 63 604 63 604C51.2782 604 41.1275 596.026 38.6185 584.575C27.6717 534.618 0 398.944 0 304C0 209.056 27.6717 73.3819 38.6185 23.4246Z" fill="url(#paint0_linear_330_7)"/>
<path d="M61.0508 5.72656C60.7316 7.08806 60.2642 9.09925 59.6689 11.7002C58.4783 16.9029 56.7778 24.4664 54.7373 33.9111C50.6565 52.8 45.2146 79.2185 39.7734 109.34C28.8956 169.558 18 244.668 18 304C18 363.332 28.8956 438.442 39.7734 498.66C45.2146 528.781 50.6565 555.2 54.7373 574.089C56.7778 583.534 58.4783 591.097 59.6689 596.3C60.2642 598.901 60.7316 600.912 61.0508 602.273C61.0626 602.324 61.0745 602.374 61.0859 602.423C50.8786 601.613 42.3011 594.372 40.084 584.254C29.1337 534.281 1.5 398.759 1.5 304C1.5 209.241 29.1337 73.7194 40.084 23.7461C42.3011 13.628 50.8786 6.38641 61.0859 5.57617C61.0744 5.62525 61.0627 5.67567 61.0508 5.72656Z" stroke="black" stroke-width="3"/>
</g>
<defs>
<filter id="filter0_d_330_7" x="0" y="0" width="71" height="608" filterUnits="userSpaceOnUse" color-interpolation-filters="sRGB">
<feFlood flood-opacity="0" result="BackgroundImageFix"/>
<feColorMatrix in="SourceAlpha" type="matrix" values="0 0 0 0 0 0 0 0 0 0 0 0 0 0 0 0 0 0 127 0" result="hardAlpha"/>
<feOffset dx="4"/>
<feGaussianBlur stdDeviation="2"/>
<feComposite in2="hardAlpha" operator="out"/>
<feColorMatrix type="matrix" values="0 0 0 0 0 0 0 0 0 0 0 0 0 0 0 0 0 0 0.25 0"/>
<feBlend mode="normal" in2="BackgroundImageFix" result="effect1_dropShadow_330_7"/>
<feBlend mode="normal" in="SourceGraphic" in2="effect1_dropShadow_330_7" result="shape"/>
</filter>
<linearGradient id="paint0_linear_330_7" x1="31.5" y1="4" x2="31.5" y2="604" gradientUnits="userSpaceOnUse">
<stop stop-color="#D72326"/>
<stop offset="0.500655" stop-color="#369644"/>
<stop offset="1" stop-color="#D72326"/>
</linearGradient>
</defs>
</svg>
