<svg width="636" height="111" viewBox="0 0 636 111" fill="none" xmlns="http://www.w3.org/2000/svg">
<g filter="url(#filter0_d_5_16)">
<path d="M598.575 62.6185C610.026 65.1275 618 75.2782 618 87C618 87 436.382 43.5 318 43.5C199.618 43.5 18 87 18 87C18 75.2782 25.9745 65.1275 37.4246 62.6185C87.3819 51.6717 223.056 24 318 24C412.944 24 548.618 51.6717 598.575 62.6185Z" fill="url(#paint0_linear_5_16)"/>
<path d="M616.273 85.0508C614.912 84.7316 612.901 84.2642 610.3 83.6689C605.097 82.4783 597.534 80.7778 588.089 78.7373C569.2 74.6565 542.781 69.2146 512.66 63.7734C452.442 52.8956 377.332 42 318 42C258.668 42 183.558 52.8956 123.34 63.7734C93.2185 69.2146 66.8 74.6565 47.9111 78.7373C38.4664 80.7778 30.9029 82.4783 25.7002 83.6689C23.0993 84.2642 21.0881 84.7316 19.7266 85.0508C19.676 85.0626 19.6259 85.0745 19.5771 85.0859C20.3874 74.8786 27.628 66.3011 37.7461 64.084C87.7194 53.1337 223.241 25.5 318 25.5C412.759 25.5 548.281 53.1337 598.254 64.084C608.372 66.3011 615.614 74.8786 616.424 85.0859C616.375 85.0744 616.324 85.0627 616.273 85.0508Z" stroke="black" stroke-width="3"/>
</g>
<defs>
<filter id="filter0_d_5_16" x="18" y="20" width="608" height="71" filterUnits="userSpaceOnUse" color-interpolation-filters="sRGB">
<feFlood flood-opacity="0" result="BackgroundImageFix"/>
<feColorMatrix in="SourceAlpha" type="matrix" values="0 0 0 0 0 0 0 0 0 0 0 0 0 0 0 0 0 0 127 0" result="hardAlpha"/>
<feOffset dx="4"/>
<feGaussianBlur stdDeviation="2"/>
<feComposite in2="hardAlpha" operator="out"/>
<feColorMatrix type="matrix" values="0 0 0 0 0 0 0 0 0 0 0 0 0 0 0 0 0 0 0.25 0"/>
<feBlend mode="normal" in2="BackgroundImageFix" result="effect1_dropShadow_5_16"/>
<feBlend mode="normal" in="SourceGraphic" in2="effect1_dropShadow_5_16" result="shape"/>
</filter>
<linearGradient id="paint0_linear_5_16" x1="618" y1="55.5" x2="18" y2="55.5" gradientUnits="userSpaceOnUse">
<stop stop-color="#FB4934"/>
<stop offset="0.500655" stop-color="#FFC746"/>
<stop offset="1" stop-color="#FB4934"/>
</linearGradient>
</defs>
</svg>
